<?xml version="1.0" standalone="no"?>
<!DOCTYPE svg PUBLIC "-//W3C//DTD SVG 20010904//EN"
 "http://www.w3.org/TR/2001/REC-SVG-20010904/DTD/svg10.dtd">
<svg version="1.0" xmlns="http://www.w3.org/2000/svg"
 width="448.000000pt" height="208.000000pt" viewBox="0 0 448.000000 208.000000"
 preserveAspectRatio="xMidYMid meet">
<metadata>
Created by potrace 1.13, written by Peter Selinger 2001-2015
</metadata>
<g transform="translate(0.000000,208.000000) scale(0.100000,-0.100000)"
fill="#000000" stroke="none">
<path d="M1252 2000 c-196 -70 -470 -343 -719 -715 -127 -189 -342 -573 -413
-736 -52 -119 -61 -165 -35 -176 20 -7 25 -2 31 32 11 63 99 245 226 473 61
108 83 140 93 132 6 -5 22 -45 35 -88 28 -95 50 -122 101 -122 40 0 97 38 194
130 59 56 142 120 156 120 6 0 9 -39 7 -100 -2 -91 0 -102 19 -122 21 -20 23
-20 47 -5 13 9 81 70 151 134 289 271 366 333 427 348 23 6 29 3 39 -18 16
-35 -12 -156 -54 -239 l-32 -63 -75 3 c-299 12 -691 -304 -929 -750 -58 -108
-63 -140 -26 -164 24 -15 28 -15 69 0 66 25 153 81 283 183 262 204 542 462
639 588 31 41 60 75 63 75 10 0 91 -53 135 -89 68 -54 92 -52 167 16 l39 35 0
-25 c0 -31 24 -57 53 -57 35 0 150 59 297 152 167 106 239 142 321 163 85 22
122 15 254 -50 186 -92 292 -118 535 -136 166 -11 1005 -2 1032 12 10 5 15 16
12 24 -5 12 -84 14 -557 12 -703 -3 -750 4 -1011 134 -109 54 -124 59 -186 59
-109 0 -195 -36 -414 -175 -141 -88 -246 -145 -271 -145 -62 0 99 226 251 352
71 58 94 98 58 98 -32 0 -116 -74 -254 -224 -145 -158 -228 -236 -252 -236 -7
0 -45 24 -84 53 -39 28 -79 57 -90 63 -15 9 -16 14 -7 25 21 26 65 142 79 208
17 85 6 134 -36 156 -25 13 -35 13 -68 2 -72 -25 -132 -74 -422 -344 -78 -73
-145 -133 -150 -133 -4 0 -5 43 -2 95 4 82 2 98 -13 115 -10 11 -26 20 -35 20
-26 0 -98 -51 -215 -154 -108 -95 -147 -118 -166 -99 -5 5 -18 40 -30 79 -11
38 -22 76 -25 85 -4 12 14 27 71 58 153 84 442 319 644 523 201 202 264 333
193 401 -34 33 -74 35 -150 7z m126 -68 c8 -78 -97 -221 -296 -406 -118 -109
-294 -253 -417 -341 -81 -58 -193 -120 -202 -112 -5 6 55 105 148 244 256 381
565 659 724 650 37 -2 40 -4 43 -35z m90 -988 c12 -4 22 -10 22 -14 0 -4 -26
-41 -58 -81 -174 -219 -808 -739 -902 -739 -19 0 -10 29 36 117 193 366 504
645 789 708 71 16 83 17 113 9z"/>
</g>
</svg>
